<svg width="32" height="32" viewBox="0 0 318 318" xmlns="http://www.w3.org/2000/svg">
<path fill="#E2761B" d="M274 35l-99 73 18-42zM44 35l99 73-17-42z"/>
<path fill="#E4761B" d="M220 211l-26 39 56 15 16-55zM62 210l15 55 56-15-26-39z"/>
<path fill="#D7C1B3" d="M128 138l-8 46 44-2-1-24z"/>
<path fill="#233447" d="M191 214l-34 26-34-26z"/>
<path fill="#CD6116" d="M159 182l1 24-44 2 5-33zM159 182l38-7 5 33-44-2z"/>
<path fill="#E2761B" d="M128 138l-28-4 8 46zM218 134l-28 4 20 42z"/>
<path fill="#F6851B" d="M156 95l-28 43 28 17 28-17z"/>
</svg>
